<svg width="18" height="18" fill="none" xmlns="http://www.w3.org/2000/svg"><g clip-path="url(#clip0)" fill="#000"><path d="M17.63 3.394H7.131a.391.391 0 00-.215.04.442.442 0 00-.169.153.527.527 0 00-.05.466l1.66 5.413c.048.15.136.28.25.373a.674.674 0 00.396.155h6.882a.674.674 0 00.395-.155.798.798 0 00.25-.373l1.447-5.543a.425.425 0 00-.04-.374.355.355 0 00-.136-.122.315.315 0 00-.173-.033zM9.652 16.23c0 .345-.092.683-.265.97a1.62 1.62 0 01-.704.644 1.423 1.423 0 01-.908.1 1.528 1.528 0 01-.803-.479 1.816 1.816 0 01-.43-.894c-.06-.34-.03-.69.09-1.01.118-.32.32-.592.577-.784a1.433 1.433 0 011.473-.161c.191.087.364.216.51.378.146.163.261.355.34.567.08.212.12.44.12.669zm6.644.021c0 .346-.093.683-.265.97a1.62 1.62 0 01-.705.644 1.423 1.423 0 01-.907.1 1.527 1.527 0 01-.804-.478 1.816 1.816 0 01-.43-.895c-.06-.339-.029-.69.09-1.01.119-.319.32-.592.578-.784a1.46 1.46 0 01.873-.294c.416 0 .815.184 1.11.512.294.328.46.772.46 1.235z"/><path d="M16.612 11.771H7.427L3.751 0H.89a.846.846 0 00-.63.29C.094.475 0 .727 0 .99c0 .262.094.514.26.7a.848.848 0 00.63.289h1.597L6.163 13.75h10.449a.81.81 0 00.34-.075.89.89 0 00.288-.215 1 1 0 00.193-.32 1.086 1.086 0 000-.758 1 1 0 00-.193-.32.89.89 0 00-.288-.215.812.812 0 00-.34-.076z"/></g><defs><clipPath id="clip0"><path fill="#fff" d="M0 0h18v18H0z"/></clipPath></defs></svg>