<svg width="30" height="28" fill="none" xmlns="http://www.w3.org/2000/svg"><path d="M15.007 7.262c-4.26 0-7.694 3.006-7.694 6.732 0 3.727 3.435 6.733 7.694 6.733S22.7 17.72 22.7 13.994c0-3.726-3.435-6.732-7.694-6.732zm0 11.11c-2.752 0-5.002-1.964-5.002-4.378s2.243-4.377 5.002-4.377 5.002 1.963 5.002 4.377c0 2.414-2.25 4.377-5.002 4.377zM24.81 6.985c0 .873-.803 1.57-1.794 1.57-.998 0-1.795-.702-1.795-1.57 0-.867.804-1.57 1.795-1.57.99 0 1.794.703 1.794 1.57zm5.096 1.594c-.114-2.103-.663-3.967-2.424-5.502-1.754-1.535-3.884-2.015-6.288-2.121-2.477-.123-9.904-.123-12.381 0-2.398.1-4.527.58-6.288 2.115C.763 4.607.22 6.471.1 8.574c-.14 2.168-.14 8.666 0 10.834.114 2.104.663 3.967 2.425 5.502 1.76 1.535 3.884 2.016 6.288 2.121 2.477.123 9.903.123 12.381 0 2.404-.1 4.534-.58 6.288-2.12 1.755-1.536 2.304-3.4 2.424-5.503.14-2.168.14-8.66 0-10.828zm-3.2 13.154c-.523 1.149-1.534 2.034-2.853 2.496-1.976.686-6.663.528-8.846.528s-6.878.152-8.846-.527c-1.313-.458-2.324-1.342-2.853-2.497-.783-1.728-.603-5.83-.603-7.74 0-1.91-.174-6.017.603-7.74.522-1.149 1.534-2.033 2.853-2.496 1.975-.686 6.663-.528 8.846-.528s6.877-.152 8.846.528c1.312.457 2.323 1.342 2.852 2.496.784 1.728.603 5.83.603 7.74 0 1.91.18 6.018-.603 7.74z" fill="#000"/></svg>