<svg width="30" height="26" fill="none" xmlns="http://www.w3.org/2000/svg"><path d="M26.916 6.89c.02.266.02.533.02.8 0 8.127-6.187 17.493-17.494 17.493-3.484 0-6.72-1.01-9.442-2.76.495.057.97.076 1.485.076 2.874 0 5.52-.971 7.633-2.627a6.16 6.16 0 01-5.749-4.264c.381.057.762.095 1.161.095a6.46 6.46 0 001.618-.21 6.15 6.15 0 01-4.93-6.034v-.076c.819.457 1.77.743 2.78.78a6.144 6.144 0 01-2.742-5.12c0-1.142.305-2.189.838-3.103a17.477 17.477 0 0012.678 6.434 6.938 6.938 0 01-.153-1.408A6.146 6.146 0 0120.768.817c1.77 0 3.369.743 4.492 1.942a12.07 12.07 0 003.902-1.485 6.132 6.132 0 01-2.703 3.389A12.326 12.326 0 0030 3.71a13.217 13.217 0 01-3.083 3.179z" fill="#000"/></svg>