<svg width="55" height="88" fill="none" xmlns="http://www.w3.org/2000/svg"><path d="M38.942 14.76h-3.05a.769.769 0 00-.761.761v20.303a7.6 7.6 0 01-7.622 7.622 7.6 7.6 0 01-7.622-7.622V15.522a.769.769 0 00-.763-.763h-3.048a.769.769 0 00-.763.762v20.303c0 6.652 5.336 12.056 11.988 12.195h.554c6.583-.139 11.988-5.543 11.988-12.195V15.522a.901.901 0 00-.901-.763z" fill="#000"/><path d="M53.77.277H1.317a.947.947 0 00-.97.97v85.784c0 .553.415.97.97.97H53.77c.554 0 .97-.417.97-.97V1.246a.947.947 0 00-.97-.97zM4.781 5.682v-.485c0-.277.208-.554.554-.554H49.89c.277 0 .554.208.554.554v39.704L28.34 67.005l-.346.346a.544.544 0 01-.762 0l-.347-.346L4.781 44.9V5.682zm45.525 76.913v.486a.546.546 0 01-.555.554H5.266a.547.547 0 01-.554-.555V51.138l22.104 22.104c.346.347.97.347 1.386 0l22.104-22.104v31.459z" fill="#000"/></svg>