<svg width="265" height="41" fill="none" xmlns="http://www.w3.org/2000/svg"><g clip-path="url(#clip0)"><path fill="#fff" d="M0 0h265v41H0z"/><path fill-rule="evenodd" clip-rule="evenodd" d="M27.789 1.437h-3.57c-.5 0-.906.406-.906.908v23.799l-.016.072c0 4.947-4.015 8.973-8.95 8.973s-8.95-4.026-8.95-8.973l-.016-.072V2.345a.907.907 0 00-.906-.908H.905c-.5 0-.905.406-.905.908v23.87c0 7.829 6.27 14.212 14.039 14.377.102.003.205.008.308.008.103 0 .206-.005.309-.008 7.768-.165 14.038-6.548 14.038-14.376V2.346a.906.906 0 00-.905-.909zM81.54 20.595H63.335c-.504 0-.913.4-.913.892v3.215c0 .493.409.893.913.893h9.44a13.594 13.594 0 01-1.084 3.28 10.252 10.252 0 01-2.457 3.24c-1.02.896-2.27 1.602-3.723 2.1-1.467.504-3.161.76-5.036.76-2.447 0-4.616-.42-6.447-1.247-1.838-.83-3.388-1.936-4.611-3.287a14.06 14.06 0 01-2.804-4.681 16.166 16.166 0 01-.958-5.514c0-1.962.339-3.874 1.008-5.683.666-1.802 1.628-3.405 2.858-4.764 1.225-1.353 2.744-2.457 4.515-3.278 1.76-.817 3.778-1.23 5.997-1.23 1.395 0 2.724.171 3.95.51 1.226.338 2.32.798 3.253 1.367a8.769 8.769 0 012.315 2.018c.622.783 1.077 1.613 1.354 2.469a.91.91 0 00.87.623h3.632a.92.92 0 00.71-.332.874.874 0 00.182-.748 11.935 11.935 0 00-1.912-4.306c-.93-1.323-2.122-2.488-3.54-3.464-1.41-.971-3.057-1.737-4.895-2.277-1.83-.537-3.838-.81-5.97-.81-3.05 0-5.821.56-8.243 1.667-2.408 1.1-4.501 2.593-6.219 4.434a19.196 19.196 0 00-3.944 6.383 21.2 21.2 0 00-1.346 7.472c0 2.523.435 4.985 1.294 7.316a18.59 18.59 0 003.867 6.286c1.704 1.829 3.825 3.314 6.306 4.414 2.486 1.103 5.395 1.662 8.648 1.662 2.574 0 4.932-.367 7.01-1.089 2.09-.727 3.934-1.774 5.48-3.11a15.945 15.945 0 003.764-4.813c.835-1.628 1.42-3.431 1.744-5.368h3.197c.505 0 .913-.4.913-.893v-3.215a.903.903 0 00-.913-.892zM130.036 2.05h-3.516a.92.92 0 00-.845.539s-12.51 26.986-12.768 27.63c-.109.271-.303.43-.514.422-.211.008-.405-.151-.514-.423-.258-.643-12.767-27.629-12.767-27.629a.92.92 0 00-.845-.539H94.75c-.506 0-.917.398-.917.888v36.148c0 .491.41.889.917.889h3.621c.507 0 .918-.398.918-.89V17.56c0-.459.56-.45.678-.16.303.747 10.107 22.029 10.107 22.029.141.33.477.546.847.546h2.945c.37 0 .705-.216.846-.546 0 0 9.804-21.282 10.108-22.028.118-.291.677-.3.677.159v21.526c0 .491.412.889.918.889h3.621a.903.903 0 00.917-.89V2.939c0-.49-.41-.888-.917-.888zm46.067 24.576a14.81 14.81 0 01-2.816 4.756c-1.206 1.366-2.714 2.483-4.475 3.32-1.753.833-3.744 1.255-5.919 1.255-2.209 0-4.203-.421-5.927-1.252-1.739-.838-3.228-1.955-4.43-3.321a14.93 14.93 0 01-2.802-4.758 16.334 16.334 0 01-.987-5.626c0-1.946.333-3.848.987-5.654.652-1.8 1.594-3.408 2.802-4.78 1.202-1.367 2.69-2.48 4.427-3.307 1.724-.824 3.721-1.242 5.93-1.242 2.192 0 4.189.418 5.933 1.242 1.752.83 3.254 1.942 4.461 3.309a14.724 14.724 0 012.815 4.778c.655 1.806.988 3.709.988 5.654a16.34 16.34 0 01-.987 5.626zm1.146-19.489c-1.681-1.833-3.752-3.325-6.158-4.434-2.416-1.114-5.174-1.678-8.198-1.678-3.021 0-5.78.564-8.201 1.678-2.412 1.109-4.489 2.6-6.175 4.433a19.057 19.057 0 00-3.869 6.39A21.702 21.702 0 00143.327 21c0 2.58.445 5.1 1.321 7.487a19.241 19.241 0 003.868 6.388c1.685 1.842 3.764 3.339 6.176 4.448 2.421 1.112 5.18 1.677 8.201 1.677 3.024 0 5.782-.565 8.198-1.678 2.406-1.108 4.479-2.605 6.159-4.448 1.677-1.838 2.986-3.99 3.894-6.392A21.097 21.097 0 00182.51 21c0-2.566-.46-5.083-1.366-7.482-.908-2.404-2.219-4.55-3.895-6.381zm44.572-5.087h-3.562a.897.897 0 00-.904.888v26.249c0 .211-.225.336-.402.035-.176-.301-16.448-26.744-16.448-26.744a.906.906 0 00-.772-.428h-3.947a.896.896 0 00-.903.888v36.148c0 .491.405.889.903.889h3.561a.896.896 0 00.903-.89v-26.16c0-.388.268-.36.371-.194.101.167 16.48 26.815 16.48 26.815a.907.907 0 00.773.429h3.947a.896.896 0 00.903-.89V2.939a.896.896 0 00-.903-.888zm25.143 18.609L264.26 2.983a.906.906 0 00.187-.979.894.894 0 00-.825-.552h-4.516a.892.892 0 00-.635.265L243 17.38V2.352c0-.498-.4-.9-.894-.9h-3.527a.897.897 0 00-.894.9v36.615c0 .497.401.9.894.9h3.527a.897.897 0 00.894-.9V23.939l15.471 15.663c.168.17.397.265.635.265h4.516c.36 0 .686-.218.825-.552a.908.908 0 00-.187-.98l-17.296-17.676z" fill="#000"/></g><defs><clipPath id="clip0"><path fill="#fff" d="M0 0h265v41H0z"/></clipPath></defs></svg>